<svg fill="#734bd1" xmlns="http://www.w3.org/2000/svg"  viewBox="0 0 50 50" width="50px" height="50px"><path d="M 30.03125 3 C 29.867188 2.996094 29.703125 3.03125 29.554688 3.105469 C 28.925781 3.417969 28.523438 3.878906 28.160156 4.28125 C 27.800781 4.683594 27.53125 5.042969 27.53125 5.042969 C 27.519531 5.058594 27.507813 5.074219 27.5 5.089844 C 26.507813 6.582031 26.019531 8.28125 26 9.992188 C 25.988281 11.308594 26.253906 12.632813 26.769531 13.878906 C 28.03125 16.90625 30.566406 19.246094 33.546875 20.363281 C 33.546875 20.363281 33.550781 20.363281 33.550781 20.363281 C 33.6875 20.417969 33.808594 20.460938 33.90625 20.496094 C 33.921875 20.5 33.9375 20.503906 33.953125 20.511719 C 33.972656 20.515625 34.015625 20.53125 34.089844 20.550781 C 34.203125 20.589844 34.394531 20.667969 34.675781 20.722656 C 35.492188 20.886719 36.253906 20.972656 36.96875 20.996094 C 40.132813 21.09375 42.324219 19.875 43.691406 18.542969 C 44.375 17.875 44.863281 17.183594 45.207031 16.621094 C 45.554688 16.058594 45.820313 15.550781 45.824219 15.546875 C 45.824219 15.546875 45.828125 15.546875 45.828125 15.546875 C 46.128906 15.089844 46.007813 14.476563 45.558594 14.167969 C 45.105469 13.859375 44.488281 13.972656 44.171875 14.421875 C 43.398438 15.558594 42.4375 16.210938 41.210938 16.527344 C 39.984375 16.84375 38.476563 16.796875 36.746094 16.367188 C 36.511719 16.308594 36.222656 16.214844 35.960938 16.117188 C 35.960938 16.117188 35.957031 16.117188 35.953125 16.113281 C 35.636719 16 35.3125 15.863281 34.996094 15.710938 L 34.992188 15.707031 L 34.984375 15.703125 C 34.394531 15.410156 33.824219 15.058594 33.304688 14.652344 C 31.867188 13.535156 30.75 11.707031 30.273438 9.796875 C 29.796875 7.886719 29.960938 5.941406 30.847656 4.53125 C 31.039063 4.226563 31.050781 3.84375 30.882813 3.527344 C 30.714844 3.210938 30.390625 3.011719 30.03125 3 Z M 20.996094 5 C 20.765625 5 20.542969 5.082031 20.367188 5.226563 C 18.765625 6.53125 17.242188 8.558594 17.242188 8.558594 C 17.230469 8.570313 17.222656 8.585938 17.214844 8.601563 C 14.253906 12.90625 14.4375 18.566406 16.691406 23.03125 C 17.0625 23.769531 17.484375 24.488281 17.957031 25.171875 C 17.960938 25.175781 17.960938 25.175781 17.960938 25.175781 C 18.332031 25.722656 18.78125 26.4375 19.429688 27.035156 C 19.640625 27.277344 19.859375 27.503906 20.078125 27.71875 C 20.128906 27.773438 20.183594 27.828125 20.234375 27.878906 C 20.238281 27.886719 20.242188 27.890625 20.246094 27.890625 C 20.453125 28.09375 20.667969 28.296875 20.890625 28.496094 C 20.890625 28.496094 20.894531 28.5 20.894531 28.5 C 20.902344 28.507813 20.914063 28.519531 20.921875 28.527344 L 20.9375 28.535156 C 20.949219 28.550781 20.964844 28.5625 20.980469 28.574219 C 21.214844 28.785156 21.453125 28.984375 21.699219 29.175781 C 21.710938 29.1875 21.71875 29.195313 21.730469 29.203125 C 21.730469 29.203125 21.785156 29.25 21.898438 29.332031 C 22.148438 29.527344 22.402344 29.714844 22.652344 29.894531 C 22.683594 29.917969 22.71875 29.941406 22.75 29.957031 C 22.773438 29.972656 22.789063 29.984375 22.808594 30 C 22.808594 30 22.8125 30 22.8125 30 C 22.902344 30.0625 22.992188 30.121094 23.066406 30.171875 C 23.089844 30.1875 23.144531 30.226563 23.234375 30.285156 C 23.429688 30.414063 23.621094 30.53125 23.820313 30.652344 C 23.839844 30.664063 23.863281 30.675781 23.882813 30.6875 C 23.882813 30.6875 23.914063 30.703125 23.949219 30.71875 C 23.957031 30.726563 23.957031 30.722656 23.96875 30.730469 C 24.125 30.824219 24.285156 30.917969 24.453125 31.003906 C 24.511719 31.039063 24.582031 31.074219 24.601563 31.085938 C 24.613281 31.09375 24.625 31.097656 24.636719 31.105469 C 24.738281 31.15625 24.847656 31.214844 24.960938 31.277344 C 25.058594 31.328125 25.085938 31.332031 25.078125 31.332031 C 25.328125 31.453125 25.566406 31.5625 25.789063 31.667969 C 25.804688 31.671875 25.820313 31.679688 25.839844 31.6875 C 25.886719 31.707031 25.925781 31.722656 25.976563 31.746094 C 26.175781 31.828125 26.382813 31.921875 26.601563 32.003906 C 26.613281 32.007813 26.628906 32.015625 26.640625 32.019531 C 26.683594 32.035156 26.757813 32.0625 26.871094 32.105469 C 26.871094 32.105469 26.875 32.105469 26.875 32.109375 C 27.0625 32.175781 27.253906 32.238281 27.441406 32.300781 C 27.539063 32.335938 27.625 32.363281 27.699219 32.390625 C 27.699219 32.390625 27.699219 32.390625 27.703125 32.390625 C 27.910156 32.457031 28.21875 32.585938 28.636719 32.65625 C 28.636719 32.65625 28.636719 32.652344 28.640625 32.65625 C 30.21875 32.917969 31.675781 33.023438 33.019531 32.996094 C 38.515625 32.875 42.078125 30.453125 44.167969 28.070313 C 46.253906 25.6875 46.957031 23.28125 46.957031 23.28125 C 47.097656 22.808594 46.871094 22.308594 46.425781 22.097656 C 45.984375 21.886719 45.453125 22.03125 45.171875 22.4375 C 42.515625 26.320313 37.351563 28.316406 31.703125 26.828125 C 31.453125 26.765625 31.210938 26.695313 30.972656 26.613281 C 30.957031 26.609375 30.9375 26.601563 30.917969 26.597656 C 30.882813 26.589844 30.835938 26.574219 30.753906 26.546875 C 30.746094 26.542969 30.738281 26.539063 30.734375 26.535156 C 30.550781 26.476563 30.378906 26.421875 30.222656 26.359375 C 30.222656 26.359375 30.222656 26.359375 30.21875 26.359375 C 30.128906 26.324219 30.050781 26.296875 29.984375 26.269531 C 29.785156 26.191406 29.597656 26.117188 29.4375 26.046875 C 29.425781 26.039063 29.417969 26.035156 29.40625 26.03125 C 29.320313 25.996094 29.28125 25.976563 29.335938 26.003906 C 29.3125 25.992188 29.289063 25.984375 29.265625 25.972656 C 29.046875 25.875 28.820313 25.769531 28.59375 25.65625 L 28.578125 25.652344 C 28.578125 25.648438 28.574219 25.648438 28.570313 25.644531 C 28.457031 25.585938 28.347656 25.53125 28.234375 25.46875 C 28.230469 25.46875 28.226563 25.464844 28.21875 25.464844 C 28.148438 25.425781 28.082031 25.390625 28.023438 25.359375 L 28.023438 25.363281 C 27.894531 25.296875 27.761719 25.214844 27.605469 25.121094 C 27.59375 25.117188 27.585938 25.113281 27.578125 25.109375 C 27.53125 25.082031 27.515625 25.074219 27.507813 25.066406 L 27.503906 25.066406 C 27.503906 25.066406 27.496094 25.0625 27.496094 25.0625 C 27.304688 24.945313 27.125 24.835938 26.984375 24.738281 C 26.964844 24.726563 26.941406 24.714844 26.921875 24.703125 C 26.9375 24.710938 26.894531 24.679688 26.792969 24.613281 C 26.6875 24.546875 26.578125 24.476563 26.460938 24.394531 L 26.457031 24.394531 C 26.453125 24.390625 26.449219 24.386719 26.441406 24.386719 C 26.222656 24.226563 25.996094 24.054688 25.765625 23.878906 L 25.746094 23.859375 C 25.691406 23.816406 25.644531 23.78125 25.613281 23.753906 C 25.605469 23.75 25.597656 23.742188 25.589844 23.734375 C 23.097656 21.746094 21.136719 19.023438 20.214844 15.980469 C 20.214844 15.980469 20.214844 15.976563 20.214844 15.976563 C 19.289063 12.980469 20.242188 9.300781 21.863281 6.5 C 22.042969 6.191406 22.042969 5.808594 21.863281 5.496094 C 21.683594 5.1875 21.351563 5 20.996094 5 Z M 10.003906 8 C 9.757813 8 9.515625 8.089844 9.332031 8.257813 C 9.277344 8.304688 9.25 8.355469 9.195313 8.40625 C 7.253906 10.203125 5.871094 12.390625 5.84375 12.4375 C 1.820313 18.285156 2.355469 27.257813 5.359375 33.316406 C 5.359375 33.320313 5.359375 33.324219 5.359375 33.328125 C 5.4375 33.492188 5.515625 33.636719 5.578125 33.75 C 5.609375 33.820313 5.644531 33.886719 5.679688 33.953125 C 5.753906 34.121094 5.808594 34.191406 5.816406 34.203125 C 5.863281 34.292969 5.910156 34.382813 5.945313 34.449219 C 5.949219 34.457031 5.957031 34.46875 5.960938 34.476563 C 6.050781 34.621094 6.136719 34.78125 6.234375 34.941406 C 6.234375 34.945313 6.238281 34.949219 6.242188 34.953125 C 6.285156 35.023438 6.339844 35.125 6.425781 35.25 C 6.535156 35.429688 6.636719 35.589844 6.710938 35.707031 C 6.714844 35.714844 6.71875 35.71875 6.71875 35.722656 C 6.757813 35.78125 6.804688 35.859375 6.863281 35.941406 C 6.867188 35.949219 6.871094 35.953125 6.875 35.957031 C 6.878906 35.964844 6.878906 35.96875 6.886719 35.980469 C 7.023438 36.1875 7.167969 36.402344 7.328125 36.625 C 7.34375 36.644531 7.339844 36.636719 7.351563 36.65625 C 7.363281 36.671875 7.363281 36.671875 7.371094 36.683594 C 7.375 36.6875 7.382813 36.699219 7.386719 36.707031 C 7.386719 36.707031 7.390625 36.710938 7.390625 36.710938 C 7.398438 36.722656 7.429688 36.761719 7.429688 36.761719 C 7.429688 36.765625 7.433594 36.769531 7.4375 36.769531 C 7.578125 36.964844 7.722656 37.164063 7.875 37.359375 C 7.933594 37.4375 7.984375 37.503906 8.011719 37.539063 C 8.019531 37.550781 8.03125 37.5625 8.039063 37.578125 C 8.167969 37.730469 8.292969 37.886719 8.421875 38.046875 C 8.425781 38.054688 8.429688 38.058594 8.433594 38.0625 C 8.472656 38.109375 8.523438 38.167969 8.578125 38.234375 C 8.746094 38.4375 8.917969 38.632813 9.09375 38.828125 C 9.109375 38.84375 9.125 38.863281 9.140625 38.878906 L 9.132813 38.867188 C 9.183594 38.925781 9.273438 39.023438 9.363281 39.082031 L 9.175781 38.921875 C 9.359375 39.125 9.546875 39.324219 9.734375 39.523438 C 9.738281 39.527344 9.742188 39.527344 9.742188 39.53125 C 9.808594 39.597656 9.875 39.664063 9.945313 39.734375 C 10.078125 39.867188 10.21875 40.011719 10.382813 40.167969 C 10.445313 40.226563 10.507813 40.28125 10.550781 40.328125 C 10.554688 40.332031 10.554688 40.332031 10.558594 40.332031 C 10.738281 40.503906 10.933594 40.6875 11.140625 40.871094 C 11.160156 40.882813 11.171875 40.898438 11.1875 40.910156 C 11.1875 40.914063 11.1875 40.914063 11.1875 40.914063 C 11.242188 40.960938 11.273438 40.988281 11.265625 40.980469 C 11.277344 40.988281 11.285156 41 11.296875 41.007813 C 11.480469 41.167969 11.664063 41.324219 11.847656 41.480469 C 11.9375 41.550781 12.015625 41.613281 12.082031 41.671875 C 12.085938 41.671875 12.085938 41.671875 12.089844 41.671875 C 12.253906 41.808594 12.410156 41.925781 12.558594 42.039063 C 12.558594 42.042969 12.5625 42.042969 12.5625 42.046875 C 12.636719 42.101563 12.714844 42.160156 12.800781 42.226563 C 12.804688 42.230469 12.808594 42.230469 12.8125 42.234375 C 12.988281 42.367188 13.164063 42.492188 13.332031 42.613281 C 13.382813 42.652344 13.441406 42.691406 13.503906 42.734375 C 13.5 42.730469 13.523438 42.75 13.515625 42.746094 C 13.542969 42.765625 13.570313 42.785156 13.59375 42.800781 C 13.757813 42.910156 13.917969 43.019531 14.085938 43.128906 C 14.085938 43.132813 14.089844 43.132813 14.089844 43.132813 C 14.164063 43.179688 14.230469 43.226563 14.296875 43.269531 C 14.300781 43.273438 14.304688 43.277344 14.3125 43.28125 C 14.578125 43.453125 14.839844 43.613281 15.097656 43.769531 C 15.113281 43.78125 15.128906 43.789063 15.144531 43.796875 C 15.207031 43.832031 15.265625 43.863281 15.320313 43.894531 C 15.324219 43.898438 15.324219 43.898438 15.328125 43.902344 C 15.527344 44.015625 15.726563 44.132813 15.9375 44.246094 L 15.917969 44.234375 C 16.058594 44.3125 16.183594 44.371094 16.285156 44.421875 C 16.410156 44.492188 16.542969 44.566406 16.683594 44.636719 C 16.703125 44.648438 16.726563 44.660156 16.75 44.671875 C 16.824219 44.699219 16.824219 44.707031 16.746094 44.660156 C 16.773438 44.679688 16.800781 44.691406 16.828125 44.703125 C 16.839844 44.710938 16.882813 44.730469 16.957031 44.769531 C 16.960938 44.769531 16.960938 44.769531 16.964844 44.769531 C 17.195313 44.886719 17.421875 44.992188 17.65625 45.09375 C 17.710938 45.121094 17.746094 45.136719 17.734375 45.128906 C 17.757813 45.140625 17.777344 45.152344 17.796875 45.160156 C 18.058594 45.277344 18.324219 45.386719 18.59375 45.496094 C 18.597656 45.496094 18.605469 45.5 18.609375 45.5 C 18.625 45.503906 18.703125 45.539063 18.78125 45.566406 C 18.796875 45.574219 18.8125 45.578125 18.828125 45.582031 C 18.835938 45.585938 18.832031 45.585938 18.839844 45.589844 C 19.054688 45.671875 19.269531 45.753906 19.484375 45.828125 C 19.542969 45.855469 19.59375 45.871094 19.628906 45.886719 C 19.910156 45.980469 20.183594 46.070313 20.464844 46.15625 C 20.472656 46.160156 20.480469 46.164063 20.492188 46.167969 C 20.507813 46.171875 20.582031 46.195313 20.664063 46.21875 C 20.667969 46.21875 20.671875 46.222656 20.675781 46.222656 C 20.695313 46.226563 20.691406 46.226563 20.710938 46.234375 C 20.949219 46.308594 21.230469 46.414063 21.597656 46.484375 C 21.601563 46.484375 21.601563 46.484375 21.605469 46.484375 C 23.535156 46.839844 25.328125 47 27 47 C 41.335938 47.003906 45.933594 35.355469 45.933594 35.355469 C 46.109375 34.890625 45.917969 34.367188 45.484375 34.125 C 45.050781 33.886719 44.503906 34 44.203125 34.394531 C 40.121094 39.761719 32.800781 40.847656 25.660156 39.207031 C 25.445313 39.15625 25.191406 39.078125 24.898438 38.988281 C 24.894531 38.988281 24.886719 38.984375 24.882813 38.984375 C 24.832031 38.96875 24.777344 38.953125 24.75 38.941406 C 24.734375 38.9375 24.71875 38.933594 24.703125 38.929688 C 24.453125 38.851563 24.199219 38.765625 23.945313 38.679688 C 23.941406 38.675781 23.933594 38.675781 23.925781 38.671875 C 23.910156 38.667969 23.894531 38.664063 23.882813 38.65625 C 23.867188 38.652344 23.851563 38.644531 23.832031 38.640625 C 23.636719 38.570313 23.425781 38.492188 23.207031 38.40625 L 23.171875 38.390625 C 23.085938 38.359375 23.011719 38.332031 22.980469 38.316406 C 22.746094 38.222656 22.503906 38.121094 22.265625 38.015625 C 22.242188 38.003906 22.222656 37.996094 22.203125 37.988281 C 22.207031 37.988281 22.15625 37.96875 22.125 37.957031 C 21.917969 37.859375 21.714844 37.761719 21.503906 37.660156 C 21.488281 37.65625 21.476563 37.648438 21.460938 37.640625 C 21.449219 37.636719 21.414063 37.621094 21.34375 37.582031 C 21.335938 37.578125 21.328125 37.574219 21.316406 37.570313 C 21.179688 37.503906 21.027344 37.425781 20.871094 37.339844 C 20.867188 37.335938 20.859375 37.332031 20.855469 37.328125 C 20.730469 37.265625 20.632813 37.21875 20.5625 37.175781 C 20.554688 37.175781 20.550781 37.171875 20.542969 37.167969 C 20.359375 37.070313 20.167969 36.957031 19.964844 36.84375 L 20.042969 36.890625 C 19.910156 36.804688 19.816406 36.757813 19.761719 36.726563 L 19.792969 36.742188 C 19.539063 36.589844 19.289063 36.4375 19.050781 36.285156 C 19.046875 36.28125 19.042969 36.28125 19.042969 36.277344 C 18.996094 36.25 18.941406 36.214844 18.875 36.167969 C 18.863281 36.15625 18.847656 36.148438 18.835938 36.140625 C 18.671875 36.035156 18.503906 35.917969 18.328125 35.800781 L 18.316406 35.792969 C 18.28125 35.765625 18.226563 35.726563 18.152344 35.671875 C 17.996094 35.5625 17.839844 35.449219 17.679688 35.328125 L 17.671875 35.328125 C 17.664063 35.320313 17.660156 35.316406 17.652344 35.308594 C 17.589844 35.257813 17.519531 35.207031 17.449219 35.152344 C 17.292969 35.03125 17.144531 34.917969 17.011719 34.808594 L 16.992188 34.796875 C 16.914063 34.730469 16.84375 34.671875 16.792969 34.628906 C 16.792969 34.628906 16.789063 34.628906 16.785156 34.625 C 16.601563 34.476563 16.425781 34.320313 16.234375 34.15625 L 16.316406 34.238281 C 16.15625 34.058594 16.082031 34.035156 16.121094 34.0625 L 16.175781 34.109375 C 15.984375 33.9375 15.789063 33.753906 15.589844 33.566406 L 15.578125 33.558594 C 15.546875 33.527344 15.496094 33.476563 15.429688 33.414063 L 15.402344 33.386719 C 15.257813 33.246094 15.125 33.113281 15.003906 32.992188 C 15 32.988281 15 32.988281 14.996094 32.984375 C 14.941406 32.929688 14.890625 32.875 14.828125 32.8125 C 14.65625 32.640625 14.488281 32.457031 14.320313 32.269531 C 14.3125 32.261719 14.300781 32.25 14.292969 32.238281 L 14.289063 32.238281 C 14.113281 32.046875 13.941406 31.847656 13.765625 31.640625 C 13.765625 31.636719 13.765625 31.632813 13.761719 31.628906 C 13.734375 31.597656 13.6875 31.539063 13.613281 31.453125 C 13.492188 31.304688 13.371094 31.148438 13.238281 30.988281 C 13.238281 30.988281 13.234375 30.984375 13.234375 30.984375 C 13.191406 30.925781 13.144531 30.863281 13.117188 30.828125 L 13.113281 30.824219 C 12.964844 30.628906 12.824219 30.4375 12.683594 30.242188 C 12.683594 30.242188 12.679688 30.238281 12.679688 30.238281 C 10.796875 27.644531 9.496094 23.449219 9.132813 19.410156 C 8.765625 15.375 9.394531 11.5 10.800781 9.59375 C 11.027344 9.292969 11.0625 8.890625 10.894531 8.554688 C 10.726563 8.214844 10.382813 8.003906 10.003906 8 Z M 28.203125 8.648438 C 28.257813 9.195313 28.199219 9.746094 28.332031 10.28125 C 28.914063 12.597656 30.214844 14.785156 32.078125 16.234375 C 32.714844 16.726563 33.398438 17.152344 34.105469 17.5 C 34.109375 17.503906 34.113281 17.507813 34.117188 17.507813 C 34.492188 17.6875 34.878906 17.851563 35.273438 17.996094 L 35.265625 17.992188 C 35.570313 18.105469 35.914063 18.222656 36.261719 18.308594 C 37.164063 18.53125 38.035156 18.648438 38.878906 18.695313 C 38.285156 18.816406 37.789063 19.019531 37.03125 18.996094 C 36.4375 18.976563 35.78125 18.902344 35.066406 18.761719 C 35.066406 18.761719 35.0625 18.761719 35.0625 18.761719 C 35.015625 18.753906 34.894531 18.707031 34.6875 18.644531 C 34.664063 18.636719 34.617188 18.621094 34.566406 18.605469 C 34.445313 18.5625 34.347656 18.53125 34.273438 18.5 C 34.265625 18.496094 34.261719 18.496094 34.253906 18.492188 C 31.785156 17.566406 29.648438 15.589844 28.617188 13.109375 C 28.199219 12.101563 27.988281 11.046875 28 10.011719 C 28.003906 9.546875 28.113281 9.097656 28.203125 8.648438 Z M 18.039063 11.46875 C 17.785156 13.160156 17.789063 14.894531 18.300781 16.5625 C 19.355469 20.039063 21.558594 23.074219 24.34375 25.296875 C 24.402344 25.347656 24.460938 25.394531 24.5 25.429688 C 24.507813 25.433594 24.515625 25.441406 24.523438 25.445313 C 24.773438 25.640625 25.035156 25.839844 25.308594 26.03125 C 25.3125 26.035156 25.320313 26.039063 25.328125 26.042969 C 25.453125 26.128906 25.578125 26.210938 25.714844 26.296875 C 25.714844 26.300781 25.714844 26.300781 25.714844 26.300781 C 25.722656 26.304688 25.792969 26.359375 25.925781 26.4375 C 26.113281 26.558594 26.300781 26.671875 26.457031 26.769531 C 26.464844 26.773438 26.46875 26.777344 26.472656 26.78125 C 26.542969 26.820313 26.589844 26.847656 26.609375 26.855469 C 26.75 26.941406 26.90625 27.035156 27.09375 27.132813 C 27.09375 27.132813 27.09375 27.132813 27.09375 27.136719 C 27.167969 27.171875 27.242188 27.210938 27.316406 27.246094 C 27.4375 27.308594 27.554688 27.371094 27.671875 27.433594 C 27.679688 27.4375 27.6875 27.441406 27.699219 27.445313 C 27.917969 27.554688 28.152344 27.664063 28.394531 27.769531 C 28.523438 27.835938 28.578125 27.855469 28.613281 27.867188 C 28.839844 27.96875 29.054688 28.050781 29.25 28.128906 C 29.347656 28.167969 29.441406 28.203125 29.515625 28.234375 L 29.511719 28.230469 C 29.71875 28.308594 29.921875 28.375 30.113281 28.4375 C 30.171875 28.460938 30.253906 28.484375 30.34375 28.511719 C 30.621094 28.605469 30.90625 28.691406 31.195313 28.765625 C 34.945313 29.753906 38.519531 29.246094 41.539063 27.828125 C 39.703125 29.472656 37.039063 30.90625 32.976563 30.996094 C 31.765625 31.023438 30.433594 30.929688 28.964844 30.683594 C 28.960938 30.679688 28.957031 30.679688 28.953125 30.679688 C 28.832031 30.660156 28.621094 30.582031 28.316406 30.484375 C 28.230469 30.460938 28.15625 30.433594 28.078125 30.40625 C 27.90625 30.351563 27.730469 30.289063 27.558594 30.226563 L 27.550781 30.222656 C 27.507813 30.207031 27.421875 30.175781 27.320313 30.140625 L 27.296875 30.128906 C 27.289063 30.125 27.289063 30.125 27.28125 30.125 C 27.117188 30.058594 26.945313 29.984375 26.765625 29.90625 C 26.765625 29.90625 26.765625 29.90625 26.761719 29.90625 C 26.710938 29.882813 26.660156 29.859375 26.601563 29.839844 C 26.367188 29.730469 26.144531 29.628906 25.9375 29.523438 C 25.925781 29.519531 25.914063 29.515625 25.902344 29.511719 C 25.800781 29.453125 25.6875 29.394531 25.566406 29.335938 L 25.554688 29.328125 C 25.546875 29.324219 25.542969 29.320313 25.535156 29.316406 C 25.488281 29.292969 25.4375 29.265625 25.4375 29.265625 C 25.414063 29.25 25.390625 29.238281 25.371094 29.226563 C 25.226563 29.152344 25.078125 29.066406 24.9375 28.980469 C 24.910156 28.964844 24.886719 28.953125 24.859375 28.9375 C 24.859375 28.9375 24.835938 28.925781 24.824219 28.921875 C 24.652344 28.816406 24.488281 28.714844 24.320313 28.605469 C 24.316406 28.601563 24.3125 28.597656 24.308594 28.59375 C 24.292969 28.585938 24.242188 28.550781 24.15625 28.496094 C 24.03125 28.414063 23.929688 28.347656 23.851563 28.292969 C 23.828125 28.273438 23.800781 28.257813 23.773438 28.238281 C 23.773438 28.238281 23.769531 28.238281 23.765625 28.234375 C 23.539063 28.070313 23.316406 27.90625 23.105469 27.738281 C 23.09375 27.730469 23.082031 27.722656 23.074219 27.714844 C 23.070313 27.710938 23.011719 27.664063 22.9375 27.605469 C 22.714844 27.429688 22.503906 27.253906 22.296875 27.070313 C 22.292969 27.066406 22.292969 27.066406 22.289063 27.0625 C 22.28125 27.054688 22.269531 27.046875 22.261719 27.039063 C 22.257813 27.035156 22.25 27.03125 22.246094 27.027344 C 22.238281 27.019531 22.234375 27.015625 22.230469 27.011719 C 22.035156 26.835938 21.84375 26.65625 21.652344 26.46875 L 21.640625 26.457031 C 21.589844 26.40625 21.542969 26.359375 21.5 26.3125 C 21.496094 26.3125 21.496094 26.308594 21.492188 26.308594 C 21.285156 26.101563 21.097656 25.90625 20.933594 25.714844 C 20.902344 25.679688 20.871094 25.648438 20.835938 25.621094 C 20.453125 25.285156 20.027344 24.652344 19.609375 24.042969 C 19.605469 24.039063 19.605469 24.039063 19.605469 24.035156 C 19.183594 23.433594 18.808594 22.796875 18.480469 22.136719 C 18.480469 22.132813 18.480469 22.132813 18.480469 22.128906 C 16.804688 18.820313 16.582031 14.816406 18.039063 11.46875 Z M 7.269531 14.078125 C 7.046875 15.824219 6.96875 17.675781 7.140625 19.59375 C 7.53125 23.917969 8.847656 28.363281 11.0625 31.410156 C 11.214844 31.628906 11.371094 31.835938 11.53125 32.046875 C 11.589844 32.125 11.628906 32.171875 11.640625 32.1875 C 11.65625 32.210938 11.671875 32.234375 11.691406 32.253906 C 11.816406 32.410156 11.945313 32.570313 12.078125 32.738281 C 12.089844 32.75 12.097656 32.757813 12.109375 32.769531 C 12.132813 32.796875 12.175781 32.855469 12.246094 32.9375 C 12.425781 33.148438 12.613281 33.367188 12.808594 33.582031 C 12.816406 33.589844 12.824219 33.601563 12.832031 33.609375 C 13.015625 33.8125 13.207031 34.015625 13.402344 34.214844 C 13.453125 34.265625 13.507813 34.324219 13.574219 34.390625 C 13.578125 34.394531 13.578125 34.394531 13.578125 34.394531 L 13.582031 34.398438 C 13.738281 34.554688 13.882813 34.699219 14.019531 34.832031 C 14.027344 34.839844 14.039063 34.851563 14.046875 34.859375 C 14.078125 34.886719 14.125 34.9375 14.207031 35.015625 C 14.210938 35.019531 14.214844 35.019531 14.21875 35.023438 C 14.417969 35.210938 14.625 35.40625 14.839844 35.59375 C 14.855469 35.613281 14.875 35.628906 14.894531 35.644531 C 14.976563 35.707031 14.957031 35.714844 14.832031 35.578125 C 14.859375 35.605469 14.886719 35.632813 14.914063 35.65625 C 15.109375 35.832031 15.308594 36.003906 15.527344 36.179688 C 15.605469 36.242188 15.667969 36.292969 15.714844 36.332031 C 15.71875 36.335938 15.726563 36.34375 15.730469 36.347656 C 15.898438 36.484375 16.058594 36.605469 16.207031 36.722656 C 16.21875 36.734375 16.230469 36.742188 16.238281 36.75 C 16.304688 36.792969 16.367188 36.84375 16.4375 36.894531 C 16.445313 36.90625 16.453125 36.914063 16.464844 36.921875 C 16.640625 37.046875 16.8125 37.175781 17 37.308594 C 17.039063 37.335938 17.097656 37.382813 17.171875 37.4375 C 17.175781 37.4375 17.179688 37.441406 17.1875 37.441406 C 17.367188 37.566406 17.558594 37.699219 17.765625 37.828125 C 17.820313 37.867188 17.882813 37.914063 17.964844 37.964844 C 17.96875 37.96875 17.972656 37.96875 17.972656 37.96875 C 18.238281 38.140625 18.503906 38.304688 18.761719 38.457031 C 18.769531 38.460938 18.777344 38.46875 18.789063 38.472656 C 18.875 38.519531 18.914063 38.542969 18.90625 38.539063 C 18.929688 38.554688 18.957031 38.574219 18.984375 38.589844 C 19.171875 38.691406 19.367188 38.804688 19.574219 38.917969 C 19.574219 38.917969 19.578125 38.921875 19.578125 38.921875 C 19.582031 38.921875 19.585938 38.925781 19.59375 38.925781 C 19.722656 39 19.839844 39.058594 19.9375 39.109375 C 20.089844 39.191406 20.253906 39.277344 20.425781 39.359375 C 20.429688 39.363281 20.441406 39.367188 20.441406 39.371094 C 20.449219 39.371094 20.449219 39.371094 20.453125 39.375 C 20.511719 39.402344 20.578125 39.441406 20.683594 39.484375 C 20.878906 39.582031 21.078125 39.675781 21.285156 39.769531 C 21.300781 39.777344 21.316406 39.785156 21.332031 39.792969 C 21.335938 39.792969 21.402344 39.820313 21.453125 39.84375 C 21.703125 39.953125 21.96875 40.066406 22.246094 40.175781 C 22.246094 40.179688 22.25 40.179688 22.25 40.179688 C 22.339844 40.214844 22.394531 40.234375 22.40625 40.238281 C 22.421875 40.246094 22.433594 40.25 22.449219 40.253906 C 22.679688 40.347656 22.921875 40.441406 23.179688 40.53125 C 23.222656 40.546875 23.269531 40.5625 23.3125 40.578125 C 23.558594 40.664063 23.8125 40.746094 24.074219 40.828125 C 24.175781 40.863281 24.265625 40.886719 24.34375 40.910156 C 24.601563 40.988281 24.886719 41.082031 25.214844 41.15625 C 30.507813 42.375 36.046875 42.066406 40.546875 39.777344 C 37.945313 42.382813 33.679688 45 27 45 C 25.457031 45 23.785156 44.851563 21.96875 44.515625 C 21.789063 44.480469 21.558594 44.402344 21.25 44.308594 C 21.234375 44.300781 21.21875 44.296875 21.203125 44.292969 C 21.199219 44.292969 21.136719 44.273438 21.0625 44.25 L 21.03125 44.242188 C 20.78125 44.164063 20.535156 44.082031 20.285156 43.996094 C 20.277344 43.992188 20.273438 43.992188 20.265625 43.988281 C 20.238281 43.980469 20.246094 43.984375 20.253906 43.984375 C 20.242188 43.980469 20.226563 43.972656 20.214844 43.96875 C 19.976563 43.882813 19.738281 43.792969 19.515625 43.707031 C 19.5 43.699219 19.480469 43.695313 19.460938 43.6875 C 19.46875 43.691406 19.414063 43.667969 19.332031 43.636719 L 19.316406 43.628906 C 19.074219 43.53125 18.839844 43.433594 18.601563 43.328125 C 18.554688 43.308594 18.492188 43.277344 18.484375 43.277344 C 18.480469 43.273438 18.476563 43.269531 18.472656 43.269531 C 18.253906 43.171875 18.050781 43.078125 17.855469 42.980469 L 17.847656 42.980469 C 17.832031 42.96875 17.773438 42.941406 17.734375 42.921875 C 17.644531 42.871094 17.632813 42.871094 17.601563 42.859375 L 17.585938 42.855469 C 17.460938 42.789063 17.335938 42.722656 17.214844 42.65625 C 17.203125 42.648438 17.191406 42.640625 17.179688 42.636719 C 17.0625 42.578125 16.972656 42.53125 16.902344 42.492188 C 16.898438 42.488281 16.890625 42.484375 16.886719 42.484375 C 16.707031 42.386719 16.527344 42.285156 16.347656 42.179688 L 16.339844 42.175781 C 16.261719 42.128906 16.1875 42.085938 16.109375 42.046875 L 16.089844 42.03125 C 15.855469 41.890625 15.625 41.746094 15.394531 41.597656 C 15.328125 41.550781 15.261719 41.511719 15.195313 41.46875 L 15.191406 41.464844 C 15.191406 41.464844 15.191406 41.464844 15.1875 41.464844 C 15.035156 41.359375 14.886719 41.257813 14.726563 41.152344 C 14.703125 41.132813 14.675781 41.113281 14.648438 41.09375 C 14.609375 41.070313 14.5625 41.035156 14.507813 40.996094 C 14.503906 40.992188 14.5 40.988281 14.496094 40.984375 C 14.332031 40.871094 14.171875 40.753906 14.019531 40.640625 L 14.015625 40.636719 C 14.015625 40.636719 14.011719 40.636719 14.011719 40.636719 C 13.9375 40.578125 13.863281 40.519531 13.78125 40.457031 L 13.777344 40.453125 C 13.621094 40.335938 13.476563 40.226563 13.34375 40.117188 L 13.339844 40.113281 C 13.261719 40.050781 13.195313 40 13.140625 39.953125 C 13.140625 39.949219 13.136719 39.949219 13.136719 39.949219 C 12.957031 39.796875 12.78125 39.644531 12.605469 39.496094 C 12.582031 39.472656 12.5625 39.457031 12.546875 39.449219 C 12.53125 39.429688 12.511719 39.414063 12.496094 39.398438 C 12.316406 39.246094 12.132813 39.070313 11.941406 38.890625 L 11.9375 38.882813 C 11.871094 38.820313 11.8125 38.769531 11.761719 38.71875 C 11.757813 38.714844 11.753906 38.710938 11.75 38.707031 C 11.625 38.589844 11.496094 38.453125 11.351563 38.308594 C 11.34375 38.300781 11.335938 38.292969 11.328125 38.28125 C 11.273438 38.230469 11.226563 38.1875 11.179688 38.140625 C 11.003906 37.953125 10.832031 37.769531 10.660156 37.582031 C 10.65625 37.578125 10.652344 37.574219 10.652344 37.574219 C 10.644531 37.5625 10.636719 37.554688 10.625 37.546875 C 10.453125 37.351563 10.285156 37.160156 10.125 36.964844 C 10.117188 36.957031 10.109375 36.949219 10.101563 36.9375 C 10.070313 36.902344 10.027344 36.851563 9.980469 36.796875 L 9.976563 36.792969 C 9.976563 36.789063 9.972656 36.785156 9.96875 36.78125 C 9.847656 36.628906 9.71875 36.46875 9.585938 36.308594 C 9.539063 36.246094 9.496094 36.1875 9.476563 36.15625 C 9.464844 36.144531 9.457031 36.132813 9.449219 36.125 C 9.320313 35.957031 9.191406 35.789063 9.0625 35.609375 L 9.054688 35.597656 C 9.019531 35.546875 8.996094 35.519531 9.007813 35.535156 C 9 35.523438 8.992188 35.511719 8.984375 35.5 C 8.976563 35.488281 8.96875 35.480469 8.960938 35.46875 C 8.957031 35.464844 8.953125 35.457031 8.949219 35.453125 C 8.949219 35.453125 8.949219 35.453125 8.945313 35.453125 C 8.8125 35.265625 8.679688 35.066406 8.539063 34.855469 C 8.535156 34.84375 8.527344 34.832031 8.515625 34.820313 C 8.492188 34.785156 8.460938 34.734375 8.421875 34.671875 L 8.410156 34.65625 C 8.292969 34.464844 8.1875 34.308594 8.117188 34.1875 C 8.109375 34.171875 8.097656 34.152344 8.085938 34.136719 C 8.054688 34.089844 8.015625 34.019531 7.957031 33.925781 L 7.953125 33.917969 C 7.871094 33.78125 7.785156 33.636719 7.695313 33.484375 L 7.695313 33.476563 C 7.6875 33.46875 7.6875 33.464844 7.679688 33.457031 C 7.640625 33.378906 7.605469 33.3125 7.578125 33.257813 C 7.566406 33.234375 7.554688 33.214844 7.539063 33.191406 C 7.496094 33.113281 7.480469 33.078125 7.515625 33.152344 C 7.5 33.117188 7.484375 33.085938 7.46875 33.058594 C 7.433594 32.996094 7.398438 32.9375 7.375 32.875 C 7.367188 32.859375 7.359375 32.84375 7.351563 32.828125 C 7.273438 32.679688 7.210938 32.5625 7.164063 32.46875 C 7.160156 32.457031 7.15625 32.445313 7.152344 32.4375 C 4.546875 27.183594 4.179688 19.085938 7.269531 14.078125 Z M 22.316406 27.105469 L 22.328125 27.109375 C 22.34375 27.132813 22.339844 27.125 22.359375 27.15625 C 22.347656 27.136719 22.332031 27.121094 22.316406 27.105469 Z M 10.667969 37.605469 C 10.667969 37.605469 10.679688 37.617188 10.683594 37.621094 C 10.695313 37.632813 10.691406 37.628906 10.703125 37.644531 C 10.703125 37.644531 10.707031 37.648438 10.707031 37.648438 L 10.707031 37.652344 C 10.714844 37.65625 10.71875 37.667969 10.722656 37.675781 C 10.691406 37.632813 10.679688 37.617188 10.667969 37.605469 Z M 14.746094 41.171875 L 14.78125 41.191406 C 14.710938 41.140625 14.714844 41.136719 14.78125 41.199219 C 14.769531 41.1875 14.757813 41.179688 14.746094 41.171875 Z"/></svg>