<svg width="65" height="65" viewBox="0 0 65 65" fill="none" xmlns="http://www.w3.org/2000/svg">
<rect width="1440" height="1024" transform="translate(-599 -361)" fill="#0A192F"/>
<path d="M39.5903 27.16C39.5903 28.7387 39.0996 30.0507 38.1183 31.096C37.1369 32.12 35.8356 32.8347 34.2143 33.24L40.7743 43H37.4463L31.3983 33.56H28.4223V43H25.6703V20.952H31.3023C34.0329 20.952 36.0916 21.4747 37.4783 22.52C38.8863 23.5653 39.5903 25.112 39.5903 27.16ZM36.6463 27.16C36.6463 25.752 36.2409 24.7387 35.4303 24.12C34.6196 23.5013 33.3503 23.192 31.6223 23.192H28.4223V31.384H31.6543C33.2969 31.384 34.5343 31.0533 35.3663 30.392C36.2196 29.7093 36.6463 28.632 36.6463 27.16Z" fill="#64FFDA"/>
</svg>
