<svg width="253" height="222" viewBox="0 0 253 222" fill="none" xmlns="http://www.w3.org/2000/svg">
<g id="Component 1">
<path id="Vector" d="M165.075 54.1318L166.447 58.6106L163.441 62.557C162.902 63.2642 163.366 64.2277 164.227 64.1844L169.017 63.9455L171.637 67.755C172.111 68.4431 173.205 68.2194 173.485 67.3957L175.077 62.7684L179.704 61.1768C180.526 60.8944 180.752 59.8024 180.064 59.3284L176.254 56.7084L176.493 51.918C176.536 51.0573 175.573 50.5934 174.866 51.1328L170.919 54.138L166.44 52.7662C165.641 52.5231 164.827 53.323 165.075 54.1318Z" fill="#8257E5"/>
<path id="Vector_2" d="M88.0334 113.878L88.8261 116.742L86.803 119.353C86.4399 119.821 86.7194 120.434 87.2762 120.388L90.375 120.134L91.9877 122.54C92.2795 122.974 92.9909 122.807 93.189 122.269L94.3132 119.247L97.3349 118.123C97.8713 117.924 98.04 117.214 97.6054 116.922L95.1997 115.309L95.4538 112.21C95.4997 111.654 94.8871 111.374 94.4191 111.737L91.8078 113.76L88.9438 112.968C88.4323 112.827 87.8905 113.361 88.0334 113.878Z" fill="#8257E5"/>
<path id="Vector_3" d="M48.5182 69.0976L51.4344 77.8826L45.8102 85.3892C44.8008 86.7345 45.7562 88.6337 47.4275 88.5973L56.7289 88.3989L62.0349 95.9518C62.9948 97.3162 65.1101 96.9419 65.6092 95.3558L68.4467 86.4467L77.3558 83.6092C78.9375 83.1057 79.3162 80.9948 77.9518 80.0349L70.3989 74.7289L70.5973 65.4275C70.6337 63.7562 68.7345 62.8008 67.3892 63.8102L59.8827 69.4344L51.0976 66.5182C49.529 66.0011 47.9924 67.5113 48.5182 69.0976Z" fill="#8257E5"/>
<path id="Vector_4" d="M172.394 203.714L173.573 207.654L170.895 211.156C170.415 211.783 170.817 212.63 171.576 212.586L175.803 212.342L178.087 215.683C178.5 216.287 179.467 216.082 179.72 215.353L181.156 211.261L185.248 209.826C185.974 209.571 186.181 208.606 185.577 208.193L182.236 205.909L182.48 201.682C182.524 200.923 181.678 200.52 181.05 201.001L177.549 203.679L173.608 202.5C172.904 202.291 172.182 203.002 172.394 203.714Z" fill="#8257E5"/>
<path id="Vector_5" d="M164.714 150.296L165.7 153.698L163.349 156.754C162.927 157.302 163.268 158.032 163.926 157.987L167.589 157.738L169.537 160.611C169.89 161.13 170.729 160.944 170.954 160.311L172.234 156.754L175.791 155.474C176.423 155.247 176.611 154.41 176.091 154.057L173.218 152.109L173.467 148.446C173.512 147.788 172.782 147.447 172.235 147.869L169.178 150.219L165.776 149.234C165.168 149.059 164.536 149.681 164.714 150.296Z" fill="#8257E5"/>
<path id="Vector_6" d="M4.71386 88.2959L5.69954 91.6981L3.34911 94.7545C2.92728 95.3022 3.26823 96.0317 3.92636 95.9867L7.58898 95.7377L9.53744 98.6113C9.88998 99.1304 10.729 98.9443 10.9544 98.3112L12.2345 94.7543L15.7913 93.4743C16.4228 93.2472 16.6105 92.4099 16.0914 92.0573L13.2178 90.1089L13.4669 86.4462C13.5119 85.7881 12.7823 85.4472 12.2346 85.869L9.17823 88.2194L5.77597 87.2337C5.16841 87.0592 4.53616 87.6815 4.71386 88.2959Z" fill="#8257E5"/>
<path id="Vector_7" d="M214.821 161.583L216.474 167.244L212.578 172.316C211.879 173.225 212.449 174.439 213.543 174.367L219.632 173.968L222.884 178.754C223.472 179.619 224.866 179.313 225.239 178.261L227.352 172.352L233.261 170.239C234.31 169.864 234.619 168.472 233.754 167.884L228.968 164.632L229.367 158.543C229.439 157.449 228.225 156.879 227.316 157.578L222.244 161.474L216.583 159.821C215.572 159.528 214.523 160.56 214.821 161.583Z" fill="#8257E5"/>
<path id="Vector_8" d="M74.7965 148.769L76.9405 155.401L72.6258 161.127C71.8514 162.154 72.561 163.585 73.8271 163.545L80.8729 163.326L84.8359 169.008C85.5529 170.034 87.1577 169.735 87.5473 168.53L89.7618 161.762L96.53 159.547C97.7316 159.154 98.0339 157.553 97.0076 156.836L91.3265 152.873L91.5452 145.827C91.5849 144.561 90.1537 143.851 89.1274 144.626L83.4009 148.94L76.769 146.796C75.5848 146.416 74.4099 147.571 74.7965 148.769Z" fill="#8257E5"/>
<path id="Vector_9" d="M228.714 118.296L229.7 121.698L227.349 124.754C226.927 125.302 227.268 126.032 227.926 125.987L231.589 125.738L233.537 128.611C233.89 129.13 234.729 128.944 234.954 128.311L236.234 124.754L239.791 123.474C240.423 123.247 240.611 122.41 240.091 122.057L237.218 120.109L237.467 116.446C237.512 115.788 236.782 115.447 236.235 115.869L233.178 118.219L229.776 117.234C229.168 117.059 228.536 117.681 228.714 118.296Z" fill="#8257E5"/>
<path id="Vector_10" d="M230.436 62.9677L232.194 68.5235L228.534 73.3601C227.877 74.2268 228.464 75.4243 229.528 75.3828L235.446 75.1544L238.738 79.9002C239.334 80.7575 240.683 80.4962 241.018 79.4819L242.921 73.7839L248.619 71.8811C249.63 71.5435 249.894 70.1967 249.037 69.6011L244.291 66.3091L244.52 60.3906C244.561 59.3272 243.364 58.7403 242.497 59.3972L237.661 63.057L232.105 61.2987C231.113 60.987 230.119 61.9645 230.436 62.9677Z" fill="#8257E5"/>
<path id="Vector_11" d="M122.821 9.58253L124.474 15.2437L120.578 20.3159C119.879 21.2249 120.449 22.4394 121.543 22.3672L127.632 21.9683L130.884 26.7544C131.472 27.619 132.866 27.313 133.239 26.2612L135.352 20.3524L141.261 18.2388C142.31 17.8637 142.619 16.4722 141.754 15.8839L136.968 12.6322L137.367 6.54326C137.439 5.44915 136.225 4.87923 135.316 5.57836L130.244 9.47389L124.583 7.8209C123.572 7.52812 122.523 8.56024 122.821 9.58253Z" fill="#8257E5"/>
<path id="Vector_12" d="M140.157 106.433L142.687 114.142L137.718 120.758C136.826 121.944 137.659 123.609 139.127 123.571L147.301 123.363L151.935 129.98C152.774 131.175 154.634 130.838 155.078 129.443L157.604 121.604L165.443 119.078C166.835 118.63 167.175 116.774 165.98 115.935L159.363 111.301L159.571 103.127C159.609 101.659 157.944 100.826 156.758 101.718L150.142 106.687L142.433 104.157C141.057 103.709 139.701 105.041 140.157 106.433Z" fill="#8257E5"/>
<path id="Vector_13" d="M106.821 200.583L108.474 206.244L104.578 211.316C103.879 212.225 104.449 213.439 105.543 213.367L111.632 212.968L114.884 217.754C115.472 218.619 116.866 218.313 117.239 217.261L119.352 211.352L125.261 209.239C126.31 208.864 126.619 207.472 125.754 206.884L120.968 203.632L121.367 197.543C121.439 196.449 120.225 195.879 119.316 196.578L114.244 200.474L108.583 198.821C107.572 198.528 106.523 199.56 106.821 200.583Z" fill="#8257E5"/>
<path id="Vector_14" d="M26.6726 129.042L27.0791 130.829L25.7108 132.551C25.4652 132.859 25.6218 133.238 25.976 133.19L27.947 132.926L28.8882 134.396C29.0585 134.661 29.5146 134.532 29.658 134.184L30.4708 132.233L32.422 131.421C32.7683 131.276 32.8988 130.821 32.6333 130.651L31.1635 129.71L31.4277 127.739C31.4753 127.384 31.0967 127.228 30.7882 127.473L29.0669 128.842L27.2795 128.435C26.9602 128.363 26.5993 128.719 26.6726 129.042Z" fill="#8257E5"/>
<path id="Vector_15" d="M106.714 55.2959L107.7 58.6981L105.349 61.7545C104.927 62.3022 105.268 63.0317 105.926 62.9867L109.589 62.7377L111.537 65.6113C111.89 66.1304 112.729 65.9443 112.954 65.3112L114.234 61.7543L117.791 60.4743C118.423 60.2472 118.611 59.4099 118.091 59.0573L115.218 57.1089L115.467 53.4462C115.512 52.7881 114.782 52.4472 114.235 52.869L111.178 55.2194L107.776 54.2337C107.168 54.0592 106.536 54.6815 106.714 55.2959Z" fill="#8257E5"/>
</g>
</svg>
